<svg width="22" height="22" viewBox="0 0 22 22" fill="none" xmlns="http://www.w3.org/2000/svg">
<path d="M19.638 13.136L19.539 12.141L19.506 12.144L19.474 12.15L19.638 13.136ZM19.638 13.136L19.738 14.131L19.771 14.128L19.803 14.123L19.638 13.136ZM15.598 18.618L16.231 17.844L16.223 17.838L15.598 18.618ZM15.598 18.618L14.965 19.392L14.973 19.399L15.598 18.618ZM6.40202 18.618L5.76902 17.845L5.75302 17.858L5.73802 17.871L6.40202 18.618ZM6.40202 18.618L7.03502 19.393L7.05102 19.38L7.06602 19.366L6.40202 18.618ZM2.36102 8.86402V7.86402H2.31102L2.26202 7.86902L2.36102 8.86402ZM2.36102 8.86402V9.86402H2.41102L2.46102 9.85902L2.36102 8.86402ZM14.131 2.26102C14.1145 2.06867 14.0908 1.87691 14.062 1.68602C14.0312 1.47588 13.967 1.27199 13.872 1.08202L12.095 2.00002C12.072 1.95502 12.077 1.93902 12.09 2.01802C12.105 2.10702 12.118 2.23102 12.141 2.46102L14.131 2.26102ZM14.226 3.21102C14.289 3.29302 14.268 3.33002 14.233 3.13502C14.2 2.94902 14.174 2.68802 14.131 2.26102L12.14 2.46002C12.18 2.85402 12.214 3.20802 12.265 3.49002C12.314 3.76002 12.4 4.11502 12.635 4.42302L14.226 3.21102ZM14.226 3.21102L12.635 4.42302C12.849 4.70387 13.1336 4.92305 13.4597 5.05829C13.7859 5.19354 14.1421 5.24002 14.492 5.19302L14.226 3.21102ZM14.964 2.60602C14.7399 2.79543 14.5094 2.9772 14.273 3.15102C14.11 3.26402 14.123 3.22402 14.226 3.21102L14.492 5.19302C14.876 5.14102 15.188 4.95102 15.414 4.79302C15.649 4.63102 15.924 4.40502 16.23 4.15402L14.964 2.60602ZM15.98 1.95602C15.7787 2.02298 15.5894 2.12155 15.419 2.24802C15.279 2.34802 15.122 2.47702 14.964 2.60602L16.23 4.15402C16.409 4.00802 16.506 3.92902 16.58 3.87702C16.645 3.83002 16.636 3.84602 16.589 3.86102L15.98 1.95602ZM17.384 2.02602C16.9399 1.83357 16.4411 1.80869 15.98 1.95602L16.589 3.86102L17.384 2.02602ZM18.33 2.77402C18.1954 2.63558 18.0563 2.50151 17.913 2.37202C17.7558 2.22929 17.5769 2.11249 17.383 2.02602L16.589 3.86102C16.543 3.84102 16.536 3.82502 16.596 3.87802C16.664 3.93802 16.753 4.02502 16.916 4.18802L18.33 2.77402ZM19.224 3.66802L18.33 2.77402L16.916 4.18802L17.81 5.08202L19.224 3.66802ZM19.972 4.61402C19.8856 4.42011 19.7688 4.2412 19.626 4.08402C19.4965 3.94108 19.3624 3.80234 19.224 3.66802L17.81 5.08302C17.973 5.24602 18.06 5.33502 18.12 5.40302C18.173 5.46302 18.157 5.45602 18.137 5.41002L19.972 4.61402ZM20.042 6.01802C20.1893 5.55697 20.1645 5.05813 19.972 4.61402L18.137 5.41002L20.042 6.01802ZM19.392 7.03402C19.5162 6.88623 19.6356 6.73449 19.75 6.57902C19.856 6.43102 19.97 6.24702 20.042 6.01802L18.137 5.41002C18.152 5.36302 18.167 5.35302 18.121 5.41902C18.069 5.49202 17.991 5.58902 17.844 5.76802L19.392 7.03402ZM18.787 7.77302C18.774 7.87602 18.734 7.88802 18.847 7.72502C18.954 7.57002 19.12 7.36602 19.392 7.03402L17.844 5.76802C17.594 6.07402 17.367 6.34902 17.204 6.58402C17.047 6.81002 16.857 7.12202 16.805 7.50602L18.787 7.77302ZM18.787 7.77302L16.805 7.50602C16.758 7.85597 16.8045 8.21213 16.9397 8.5383C17.075 8.86446 17.2942 9.14901 17.575 9.36302L18.787 7.77302ZM19.737 7.86802C19.4446 7.84356 19.1531 7.80921 18.863 7.76502C18.668 7.73002 18.705 7.71002 18.787 7.77302L17.575 9.36302C17.883 9.59802 18.237 9.68402 18.509 9.73302C18.79 9.78302 19.144 9.81802 19.538 9.85802L19.737 7.86802ZM20.916 8.12602C20.7261 8.03102 20.5222 7.96688 20.312 7.93602C20.1211 7.90719 19.9294 7.88451 19.737 7.86802L19.538 9.85802C19.6861 9.87103 19.8338 9.8877 19.981 9.90802C20.061 9.92202 20.044 9.92702 19.999 9.90402L20.916 8.12602ZM21.859 9.16902C21.6813 8.71868 21.3462 8.34809 20.916 8.12602L20 9.90602L21.859 9.16902ZM21.999 10.367C21.999 10.163 21.999 9.96002 21.988 9.78802C21.9779 9.57576 21.934 9.36647 21.858 9.16802L20 9.90602C19.982 9.85902 19.988 9.84302 19.994 9.92302C20 10.013 20 10.138 20 10.369L21.999 10.367ZM21.999 11.631V10.367H19.999V11.631H21.999ZM21.859 12.829C21.947 12.606 21.976 12.392 21.988 12.209C21.999 12.038 21.999 11.835 21.999 11.631H19.999C19.999 11.862 19.999 11.987 19.993 12.077C19.987 12.157 19.981 12.141 19.999 12.094L21.859 12.829ZM20.916 13.872C21.3462 13.65 21.6813 13.2794 21.859 12.829L20 12.095L20.916 13.872ZM19.737 14.13C19.941 14.11 20.142 14.09 20.312 14.062C20.492 14.032 20.702 13.982 20.916 13.872L20 12.095C20.044 12.072 20.061 12.077 19.982 12.09C19.8349 12.1111 19.6871 12.1281 19.539 12.141L19.737 14.13ZM18.788 14.225C18.705 14.288 18.668 14.268 18.863 14.233C19.049 14.2 19.31 14.173 19.737 14.13L19.538 12.14C19.145 12.18 18.79 12.214 18.509 12.265C18.238 12.314 17.883 12.4 17.575 12.635L18.788 14.225ZM18.788 14.225L17.575 12.635C17.2942 12.849 17.075 13.1336 16.9397 13.4597C16.8045 13.7859 16.758 14.1421 16.805 14.492L18.788 14.225ZM19.392 14.963C19.2026 14.7392 19.0209 14.5091 18.847 14.273C18.734 14.11 18.775 14.122 18.788 14.225L16.805 14.492C16.857 14.876 17.047 15.188 17.205 15.414C17.368 15.649 17.594 15.924 17.844 16.23L19.392 14.963ZM20.042 15.979C19.975 15.7781 19.8764 15.589 19.75 15.419C19.65 15.278 19.521 15.122 19.392 14.963L17.844 16.23C17.99 16.409 18.069 16.505 18.121 16.579C18.168 16.644 18.153 16.636 18.137 16.589L20.042 15.979ZM19.972 17.384C20.1647 16.9396 20.1896 16.4404 20.042 15.979L18.137 16.589L19.972 17.384ZM19.224 18.33C19.369 18.185 19.512 18.043 19.626 17.913C19.746 17.775 19.876 17.604 19.972 17.383L18.137 16.588C18.157 16.542 18.173 16.536 18.12 16.596C18.06 16.664 17.973 16.752 17.81 16.916L19.224 18.33ZM18.33 19.223L19.224 18.33L17.81 16.916L16.916 17.809L18.33 19.223ZM17.384 19.972C17.578 19.8852 17.7569 19.7681 17.914 19.625C18.043 19.512 18.186 19.368 18.33 19.223L16.916 17.809C16.8123 17.9153 16.7055 18.0187 16.596 18.119C16.536 18.173 16.543 18.157 16.589 18.137L17.384 19.972ZM15.98 20.042C16.4411 20.1893 16.9399 20.1645 17.384 19.972L16.589 18.137L15.98 20.042ZM14.964 19.392C15.122 19.521 15.278 19.65 15.419 19.75C15.567 19.855 15.751 19.969 15.98 20.042L16.589 18.137C16.636 18.152 16.645 18.167 16.579 18.121C16.4601 18.0319 16.3438 17.9396 16.23 17.844L14.964 19.392ZM14.226 18.788C14.123 18.773 14.11 18.733 14.273 18.846C14.428 18.954 14.631 19.119 14.963 19.391L16.23 17.844C15.924 17.593 15.649 17.367 15.414 17.204C15.188 17.046 14.876 16.857 14.492 16.805L14.226 18.788ZM14.226 18.788L14.492 16.805C14.1421 16.758 13.7859 16.8045 13.4597 16.9397C13.1336 17.075 12.849 17.2942 12.635 17.575L14.226 18.788ZM14.13 19.737C14.173 19.31 14.2 19.048 14.233 18.863C14.268 18.668 14.288 18.704 14.225 18.787L12.635 17.574C12.4 17.882 12.314 18.237 12.265 18.508C12.215 18.79 12.181 19.144 12.141 19.538L14.13 19.737ZM13.871 20.916C13.981 20.702 14.031 20.492 14.061 20.312C14.091 20.142 14.109 19.941 14.13 19.737L12.141 19.538C12.1278 19.6865 12.1105 19.8335 12.089 19.981C12.076 20.061 12.071 20.044 12.094 19.999L13.871 20.916ZM12.83 21.859C13.2796 21.6809 13.6494 21.3459 13.871 20.916L12.095 20L12.83 21.859ZM11.63 21.999C11.835 21.999 12.038 21.999 12.21 21.988C12.392 21.976 12.606 21.949 12.83 21.859L12.095 20C12.142 19.982 12.158 19.988 12.078 19.994C11.9294 20.0002 11.7807 20.0022 11.632 20L11.63 21.999ZM10.367 21.999H11.63L11.631 19.999H10.367V21.999ZM9.16902 21.859C9.39202 21.947 9.60602 21.976 9.78902 21.988C9.96002 21.999 10.163 21.999 10.367 21.999V19.999C10.136 19.999 10.011 19.999 9.92102 19.993C9.84102 19.987 9.85702 19.981 9.90402 19.999L9.16902 21.859ZM8.12602 20.916C8.34809 21.3462 8.71868 21.6813 9.16902 21.859L9.90402 19.999L8.12602 20.916ZM7.86802 19.737C7.88802 19.941 7.90802 20.142 7.93602 20.312C7.96602 20.492 8.01602 20.702 8.12602 20.916L9.90602 20C9.92902 20.044 9.92402 20.061 9.91102 19.982C9.88991 19.8349 9.8729 19.6871 9.86002 19.539L7.86802 19.737ZM7.77302 18.787C7.71002 18.705 7.73002 18.667 7.76502 18.863C7.79802 19.048 7.82502 19.31 7.86802 19.737L9.85802 19.538C9.81802 19.144 9.78402 18.79 9.73302 18.508C9.68402 18.238 9.59802 17.883 9.36302 17.575L7.77302 18.787ZM7.77302 18.787L9.36302 17.575C9.14901 17.2942 8.86446 17.075 8.5383 16.9397C8.21213 16.8045 7.85597 16.758 7.50602 16.805L7.77302 18.787ZM7.03402 19.392C7.36702 19.12 7.57002 18.954 7.72502 18.847C7.88802 18.734 7.87602 18.774 7.77302 18.787L7.50602 16.805C7.12202 16.857 6.81002 17.047 6.58402 17.205C6.34902 17.367 6.07402 17.593 5.76802 17.844L7.03402 19.392ZM6.01802 20.042C6.21932 19.9751 6.40869 19.8765 6.57902 19.75C6.71902 19.65 6.87602 19.521 7.03402 19.392L5.76902 17.845C5.65495 17.9406 5.53924 18.033 5.42002 18.122C5.35502 18.169 5.36402 18.154 5.41102 18.138L6.01802 20.042ZM4.61402 19.972C5.05813 20.1645 5.55697 20.1893 6.01802 20.042L5.40902 18.137L4.61402 19.972ZM3.66702 19.224C3.81202 19.369 3.95502 19.512 4.08502 19.626C4.22202 19.746 4.39302 19.877 4.61502 19.973L5.40902 18.137C5.45502 18.157 5.46202 18.173 5.40202 18.12C5.2925 18.0197 5.18579 17.9163 5.08202 17.81L3.66702 19.224ZM2.77402 18.33L3.66802 19.224L5.08202 17.81L4.18802 16.916L2.77402 18.33ZM2.02602 17.384C2.12102 17.604 2.25202 17.776 2.37202 17.914C2.48602 18.043 2.62902 18.186 2.77402 18.33L4.18802 16.916C4.08174 16.8123 3.97836 16.7055 3.87802 16.596C3.82502 16.536 3.84102 16.543 3.86102 16.589L2.02602 17.384ZM1.95602 15.98C1.80869 16.4411 1.83357 16.9399 2.02602 17.384L3.86102 16.589L1.95602 15.98ZM2.60602 14.964C2.48184 15.1118 2.36244 15.2636 2.24802 15.419C2.12155 15.5894 2.02298 15.7787 1.95602 15.98L3.86102 16.589C3.84502 16.636 3.83102 16.645 3.87702 16.579C3.92902 16.506 4.00702 16.409 4.15402 16.23L2.60602 14.964ZM3.21002 14.225C3.22402 14.122 3.26402 14.11 3.15102 14.273C3.04402 14.428 2.87802 14.632 2.60602 14.964L4.15402 16.23C4.40402 15.924 4.63102 15.649 4.79402 15.414C4.95102 15.188 5.14102 14.876 5.19302 14.492L3.21002 14.225ZM3.21002 14.225L5.19302 14.492C5.24002 14.1421 5.19354 13.7859 5.05829 13.4597C4.92305 13.1336 4.70387 12.849 4.42302 12.635L3.21002 14.225ZM2.26002 14.13C2.68802 14.173 2.95002 14.2 3.13502 14.233C3.33002 14.268 3.29302 14.288 3.21002 14.225L4.42302 12.635C4.11502 12.4 3.76102 12.314 3.48902 12.265C3.20802 12.215 2.85402 12.18 2.45902 12.14L2.26002 14.13ZM1.08202 13.872C1.29602 13.982 1.50602 14.032 1.68602 14.062C1.85602 14.09 2.05702 14.111 2.26102 14.131L2.45902 12.14C2.31092 12.1275 2.16419 12.1108 2.01702 12.09C1.93702 12.076 1.95402 12.071 1.99902 12.094L1.08202 13.872ZM0.14002 12.83C0.317751 13.2804 0.652807 13.651 1.08302 13.873L2.00002 12.095L0.14002 12.83ZM2.04061e-05 11.632C2.04061e-05 11.836 2.04435e-05 12.039 0.0110204 12.211C0.0230204 12.393 0.0510204 12.607 0.14102 12.831L2.00002 12.094C2.01802 12.141 2.01202 12.157 2.00702 12.077C2.00056 11.9288 1.99823 11.7804 2.00002 11.632H2.04061e-05ZM2.04061e-05 10.368V11.632H2.00002V10.368H2.04061e-05ZM0.14002 9.16902C0.0643663 9.36752 0.0208206 9.57681 0.0110204 9.78902C-0.000979557 9.96102 2.04061e-05 10.164 2.04061e-05 10.369H2.00002C2.00002 10.137 2.00002 10.012 2.00702 9.92202C2.01202 9.84202 2.01802 9.85802 2.00002 9.90502L0.14002 9.16902ZM1.08302 8.12802C0.653167 8.3496 0.318159 8.71942 0.14002 9.16902L2.00002 9.90502L1.08302 8.12802ZM2.26202 7.86802C2.05802 7.88902 1.85702 7.90802 1.68702 7.93802C1.50702 7.96802 1.29702 8.01802 1.08302 8.12802L2.00002 9.90502C1.95502 9.92802 1.93902 9.92302 2.01802 9.91002C2.16518 9.88891 2.31291 9.8719 2.46102 9.85902L2.26202 7.86802ZM3.21202 7.77402C3.29502 7.71102 3.33202 7.73102 3.13602 7.76602C2.95102 7.79902 2.68902 7.82602 2.26202 7.86902L2.46102 9.85902C2.85402 9.81902 3.20902 9.78502 3.49102 9.73402C3.76202 9.68502 4.11702 9.59902 4.42502 9.36402L3.21202 7.77402ZM3.21202 7.77402L4.42502 9.36402C4.70569 9.1499 4.92467 8.8653 5.05974 8.53914C5.1948 8.21298 5.24113 7.85688 5.19402 7.50702L3.21202 7.77402ZM2.60702 7.03502C2.87902 7.36702 3.04502 7.57102 3.15302 7.72602C3.26602 7.88902 3.22602 7.87702 3.21202 7.77402L5.19402 7.50702C5.14202 7.12302 4.95302 6.81202 4.79502 6.58502C4.63202 6.35002 4.40502 6.07502 4.15502 5.76902L2.60702 7.03502ZM1.95702 6.01802C2.03002 6.24802 2.14302 6.43102 2.24902 6.58002C2.34902 6.72002 2.47802 6.87702 2.60702 7.03502L4.15502 5.76902C4.05945 5.65495 3.96708 5.53924 3.87802 5.42002C3.83102 5.35502 3.84702 5.36302 3.86202 5.41002L1.95702 6.01802ZM2.02702 4.61502C1.83481 5.05884 1.80995 5.55727 1.95702 6.01802L3.86202 5.41002L2.02702 4.61502ZM2.77502 3.66802C2.63002 3.81302 2.48702 3.95502 2.37302 4.08502C2.23029 4.2422 2.11349 4.42111 2.02702 4.61502L3.86202 5.41002C3.84202 5.45602 3.82602 5.46302 3.87902 5.40202C3.93902 5.33402 4.02602 5.24602 4.18902 5.08202L2.77502 3.66802ZM3.66902 2.77502L2.77502 3.66802L4.18902 5.08202L5.08402 4.18902L3.66902 2.77502ZM4.61502 2.02602C4.42104 2.1128 4.24213 2.22993 4.08502 2.37302C3.94208 2.50253 3.80334 2.6366 3.66902 2.77502L5.08402 4.18902C5.24702 4.02502 5.33502 3.93802 5.40302 3.87902C5.46302 3.82502 5.45602 3.84102 5.41002 3.86102L4.61502 2.02602ZM6.01902 1.95602C5.55797 1.80869 5.05913 1.83357 4.61502 2.02602L5.41002 3.86102L6.01902 1.95602ZM7.03402 2.60602C6.87602 2.47702 6.72102 2.34902 6.58002 2.24902C6.40976 2.1222 6.22039 2.02329 6.01902 1.95602L5.41002 3.86102C5.36302 3.84602 5.35402 3.83102 5.42002 3.87702C5.49302 3.93002 5.59002 4.00802 5.76902 4.15502L7.03402 2.60602ZM7.77402 3.21102C7.87702 3.22502 7.88902 3.26502 7.72602 3.15202C7.48994 2.97819 7.25981 2.79642 7.03602 2.60702L5.76902 4.15502C6.07502 4.40502 6.34902 4.63102 6.58402 4.79502C6.81002 4.95202 7.12202 5.14102 7.50602 5.19302L7.77402 3.21102ZM7.77402 3.21102L7.50702 5.19302C7.85697 5.24002 8.21313 5.19354 8.5393 5.05829C8.86546 4.92305 9.15001 4.70387 9.36402 4.42302L7.77402 3.21102ZM7.86902 2.26102C7.82602 2.68902 7.79902 2.95102 7.76602 3.13602C7.73102 3.33102 7.71102 3.29402 7.77402 3.21102L9.36402 4.42302C9.59902 4.11502 9.68502 3.76102 9.73402 3.49002C9.78402 3.20902 9.82002 2.85402 9.85902 2.46002L7.86902 2.26102ZM8.12702 1.08302C8.03202 1.27299 7.96788 1.47688 7.93702 1.68702C7.90902 1.85702 7.88902 2.05802 7.86902 2.26202L9.85902 2.46002C9.87203 2.31196 9.8887 2.16525 9.90902 2.01802C9.92302 1.93802 9.92802 1.95602 9.90502 2.00002L8.12702 1.08302ZM9.17002 0.14002C8.71968 0.317751 8.34909 0.652807 8.12702 1.08302L9.90502 2.00002L9.17002 0.14002ZM10.368 2.04061e-05C10.164 2.04061e-05 9.96102 2.04435e-05 9.78902 0.0110204C9.57681 0.0208206 9.36752 0.0643663 9.16902 0.14002L9.90602 2.00002C9.85902 2.01802 9.84302 2.01202 9.92302 2.00702C10.013 2.00102 10.138 2.00002 10.369 2.00002L10.368 2.04061e-05ZM11.632 2.04061e-05H10.368V2.00002H11.632V2.04061e-05ZM12.83 0.14002C12.6315 0.0643663 12.4222 0.0208206 12.21 0.0110204C12.04 -0.000979557 11.837 2.04061e-05 11.633 2.04061e-05V2.00002C11.864 2.00002 11.989 2.00002 12.079 2.00702C12.159 2.01202 12.142 2.01802 12.095 2.00002L12.83 0.14002ZM13.873 1.08302C13.651 0.652807 13.2804 0.317751 12.83 0.14002L12.095 2.00002L13.873 1.08302ZM14 11C14 11.7957 13.6839 12.5587 13.1213 13.1213C12.5587 13.6839 11.7957 14 11 14V16C12.3261 16 13.5979 15.4732 14.5356 14.5356C15.4732 13.5979 16 12.3261 16 11H14ZM11 8.00002C11.7957 8.00002 12.5587 8.31609 13.1213 8.8787C13.6839 9.44131 14 10.2044 14 11H16C16 9.67394 15.4732 8.40217 14.5356 7.46449C13.5979 6.5268 12.3261 6.00002 11 6.00002V8.00002ZM8.00002 11C8.00002 10.2044 8.31609 9.44131 8.8787 8.8787C9.44131 8.31609 10.2044 8.00002 11 8.00002V6.00002C9.67394 6.00002 8.40217 6.5268 7.46449 7.46449C6.5268 8.40217 6.00002 9.67394 6.00002 11H8.00002ZM11 14C10.2044 14 9.44131 13.6839 8.8787 13.1213C8.31609 12.5587 8.00002 11.7957 8.00002 11H6.00002C6.00002 12.3261 6.5268 13.5979 7.46449 14.5356C8.40217 15.4732 9.67394 16 11 16V14Z" fill="white"/>
</svg>
